<svg xmlns="http://www.w3.org/2000/svg" width="72" height="72" viewBox="219 89 72 72"><desc>  Created with Sketch.</desc><g fill="none"><rect x="219" y="89" width="72" height="72" rx="2.4"/><g fill="#6E8FB0"><path d="M245 142L247 142 247 144 247 151.4C247 152.4 247.6 153 248.5 153 249.4 153 250 152.4 250 151.4L250 144 250 142 252 142 260 142 262 142 262 144 262 151.4C262 152.4 262.6 153 263.5 153 264.4 153 265 152.4 265 151.4L265 144 265 142 267 142 270.5 142C270.8 142 271 141.9 271.1 141.9 271 141.9 271 142 271 142L271 115 273 117 239 117 241 115 241 142C241 142 241 141.9 240.9 141.9 241 141.9 241.2 142 241.5 142L245 142ZM241.5 144C240.1 144 239 143.3 239 142L239 115 273 115 273 142C273 143.3 271.9 144 270.5 144L267 144 267 151.4C267 153.4 265.6 155 263.5 155 261.4 155 260 153.5 260 151.4L260 144 252 144 252 151.4C252 153.4 250.6 155 248.5 155 246.4 155 245 153.4 245 151.4L245 144 241.5 144ZM232 134.6C232 135.3 232.7 136 233.5 136 234.3 136 235 135.3 235 134.6L235 118.5C235 117.7 234.3 117 233.5 117 232.7 117 232 117.7 232 118.5L232 134.6ZM230 118.5C230 116.5 231.6 115 233.5 115 235.4 115 237 116.5 237 118.5L237 134.6C237 136.5 235.4 138 233.5 138 231.6 138 230 136.5 230 134.6L230 118.5ZM277 118.5L277 134.6C277 135.3 277.7 136 278.5 136 279.3 136 280 135.3 280 134.6L280 118.5C280 117.7 279.3 117 278.5 117 277.7 117 277 117.7 277 118.5ZM282 118.5L282 134.6C282 136.5 280.4 138 278.5 138 276.6 138 275 136.5 275 134.6L275 118.5C275 116.5 276.6 115 278.5 115 280.4 115 282 116.5 282 118.5Z"/><path d="M256 111L272.8 111C272.8 111.1 272.8 111.1 272.8 111.2L271.1 113C271 112.9 271 112.7 271 112.5 270.9 112 270.8 111.5 270.7 110.9 270.4 109.2 269.8 107.5 268.9 106 266.5 101.6 262.5 99 256 99 249.5 99 245.5 101.6 243.1 106 242.2 107.5 241.6 109.2 241.3 110.9 241.2 111.5 241.1 112 241 112.5 241 112.7 241 112.8 241 113 241 113 241 113 241 113L239.2 111.2C239.2 111.1 239.2 111.1 239.2 111L256 111ZM256 113L239 113C239 113 239.5 97 256 97 272.5 97 273 113 273 113L256 113Z"/><path d="M249.2 108C248.5 108 248 107.5 248 106.8L248 106.2C248 105.5 248.5 105 249.2 105L249.8 105C250.5 105 251 105.5 251 106.2L251 106.8C251 107.5 250.5 108 249.8 108L249.2 108Z"/><path d="M262.2 108C261.5 108 261 107.5 261 106.8L261 106.2C261 105.5 261.5 105 262.2 105L262.8 105C263.5 105 264 105.5 264 106.2L264 106.8C264 107.5 263.5 108 262.8 108L262.2 108Z"/><path d="M247.9 93.6C247.7 93.1 247.1 92.9 246.6 93.1 246.1 93.3 245.9 93.9 246.1 94.4L248.1 99.4C248.3 99.9 248.9 100.1 249.4 99.9 249.9 99.7 250.1 99.1 249.9 98.6L247.9 93.6Z"/><path d="M265.9 94.4C266.1 93.9 265.9 93.3 265.4 93.1 264.9 92.9 264.3 93.1 264.1 93.6L262.1 98.6C261.9 99.1 262.1 99.7 262.6 99.9 263.1 100.1 263.7 99.9 263.9 99.4L265.9 94.4Z"/></g></g></svg>