<svg xmlns="http://www.w3.org/2000/svg" width="72" height="72" viewBox="34 89 72 72"><style>.a{fill:#6E8FB0;}</style><desc>  Created with Sketch.</desc><g fill="none"><rect x="34" y="89" width="72" height="72" rx="2.4"/><path d="M91.8 114.6C89.4 111.1 85.8 109.7 82.3 109.5 80.5 109.3 78.7 109.7 76.1 110.7 75.9 110.8 75.7 110.9 75.4 111 75.1 111.1 74.9 111.2 74.8 111.2 74.3 111.4 73.9 111.6 73.5 111.7 72.5 112.1 71.7 112.3 70.9 112.3 69.6 112.3 69.3 112.2 65.8 110.8 63.7 110 62.3 109.6 61 109.7 56.6 109.7 52.5 112.2 50.3 116.2 46 123.6 48.2 135.9 54 144.3 57.4 149.1 59.4 151.1 61.8 151 62.9 151 63.7 150.7 65.1 150.1 65.2 150.1 65.3 150 65.5 149.9 67.9 148.9 69.4 148.5 71.7 148.5 73.9 148.5 75.4 148.9 77.6 149.9 77.8 150 78 150 78.1 150.1 79.5 150.7 80.4 150.9 81.6 150.9 84.1 150.9 85.9 149.2 89.2 144.4 90.4 142.7 91.4 140.8 92.1 139 92.4 138.3 92.6 137.7 92.8 137.2 93 136.9 93.2 136.2 93.1 136.4L95 137 94.2 138.8C94.3 138.9 94 138.8 93.8 138.7 93.5 138.5 93.1 138.3 92.7 138.1 91.7 137.5 90.6 136.7 89.6 135.8 86.7 133.1 85 129.4 84.9 124.9 84.9 121 86.3 117.6 88.7 114.9 89.4 114 90.3 113.3 91.1 112.6 91.4 112.4 91.7 112.2 92 112 92 112 92.1 111.9 92.2 111.9 92.6 112.4 93 112.9 93.4 113.5 93.4 113.5 93 113.7 92.4 114.2L91.8 114.6ZM95 137C94.9 137.2 93.7 141.3 90.8 145.5 88.3 149.2 85.7 152.8 81.6 152.9 77.6 153 76.3 150.5 71.7 150.5 67.1 150.5 65.6 152.8 61.8 153 57.9 153.1 54.9 149 52.3 145.4 47.2 138 43.2 124.4 48.5 115.2 51.1 110.6 55.9 107.7 61 107.7 64.9 107.6 68.5 110.3 70.9 110.3 73.3 110.3 77.7 107 82.4 107.5 84.4 107.6 89.9 108.3 93.4 113.5 93.1 113.6 86.8 117.3 86.9 124.9 87 134 94.9 137 95 137Z" class="a"/><path d="M73.2 98.4C71.7 100.4 70.5 104 70.5 106L70.5 107 71.5 107C74.4 107 77.2 105.1 79.8 102.2 81.8 99.7 82.9 97.1 82.9 94L82.9 93 81.9 93C79.3 93 75.2 95.7 73.2 98.4ZM80.9 94C80.9 96.6 80 98.8 78.2 100.8 76 103.4 73.7 105 71.5 105L72.5 106C72.5 104.5 73.6 101.2 74.8 99.6 76.5 97.4 80.1 95 81.9 95L80.9 94Z" class="a"/></g></svg>