<?xml version="1.0" encoding="utf-8"?>
<!-- Generator: Adobe Illustrator 19.0.0, SVG Export Plug-In . SVG Version: 6.00 Build 0)  -->
<svg version="1.1" id="Layer_1" xmlns="http://www.w3.org/2000/svg" xmlns:xlink="http://www.w3.org/1999/xlink" x="0px" y="0px"
	 viewBox="0 0 250 250" style="enable-background:new 0 0 250 250;" xml:space="preserve">
<style type="text/css">
	.st0{fill:#FFBB00;}
	.st1{fill:#FFFFFF;}
	.st2{fill:#CC409E;}
</style>
<g id="XMLID_62_">
	<path id="XMLID_72_" class="st0" d="M229.2,125c0-57.5-46.7-104.2-104.2-104.2S20.8,67.5,20.8,125c0,57.5,46.7,104.2,104.2,104.2
		S229.2,182.5,229.2,125z M62.6,93.6c16.7-17.3,35.6-3.8,35.6-3.8c16.4,15.8,6.3,17.7,6.3,17.7c-24.3-12.6-45.7,0-45.7,0
		C52.9,103,62.6,93.6,62.6,93.6z M153.7,176.8c-2.4,1.6-4.9,3-7.5,4.1c-2.5,1.1-5.2,1.9-7.9,2.6c-2.7,0.6-5.4,1-8.1,1.2
		c-2.7,0.2-5.4,0.2-8,0c-2.6-0.2-5.2-0.5-7.8-1c-2.5-0.5-4.9-1-7.3-1.7c-2.3-0.7-4.5-1.4-6.7-2.3c-2-0.8-3.9-1.7-5.8-2.7
		c-1.6-0.8-3.2-1.8-4.7-2.8c-1.8-1.2-5.9-6.3-6.3-7c-0.4-0.7-0.8-1.3-1.2-1.9c-0.6-1-1.2-2.1-1.7-3.1c-1.1-2.3-2.1-4.8-2.3-7.3
		c-0.1-1.8,0.2-3.7,1.6-4.9c1.7-1.5,4.3-1.5,6.2-0.1c8.1,6.3,40.4,27.7,74.9,3.2c2.3-1.6,5.4-1.1,7,1.2
		C170.6,157.9,170.8,165.1,153.7,176.8z M162.2,127c-17.1,0-30.9-13.8-30.9-30.9s13.8-30.9,30.9-30.9c17.1,0,30.9,13.8,30.9,30.9
		S179.2,127,162.2,127z"/>
	<path id="XMLID_69_" d="M125,0C56,0,0,56,0,125c0,69,56,125,125,125s125-56,125-125C250,56,194,0,125,0z M20.8,125
		C20.8,67.5,67.5,20.8,125,20.8S229.2,67.5,229.2,125c0,57.5-46.7,104.2-104.2,104.2S20.8,182.5,20.8,125z"/>
	<path id="XMLID_68_" d="M104.6,107.5c0,0,10.1-1.9-6.3-17.7c0,0-18.9-13.6-35.6,3.8c0,0-9.8,9.5-3.8,13.9
		C58.9,107.5,80.3,94.9,104.6,107.5z"/>
	<path id="XMLID_67_" d="M162.2,83.5c-6.9,0-12.6,5.6-12.6,12.6c0,6.9,5.6,12.6,12.6,12.6c6.9,0,12.6-5.6,12.6-12.6
		C174.7,89.2,169.1,83.5,162.2,83.5z"/>
	<path id="XMLID_64_" class="st1" d="M162.2,65.2c-17.1,0-30.9,13.8-30.9,30.9s13.8,30.9,30.9,30.9c17.1,0,30.9-13.8,30.9-30.9
		S179.2,65.2,162.2,65.2z M162.2,108.7c-6.9,0-12.6-5.6-12.6-12.6c0-6.9,5.6-12.6,12.6-12.6c6.9,0,12.6,5.6,12.6,12.6
		C174.7,103,169.1,108.7,162.2,108.7z"/>
	<path id="XMLID_63_" d="M161,153c-34.5,24.6-66.8,3.1-74.9-3.2c-1.8-1.4-4.4-1.5-6.2,0.1c-1.4,1.3-1.8,3.1-1.6,4.9
		c0.2,2.6,1.2,5.1,2.3,7.3c0.5,1.1,1.1,2.1,1.7,3.1c0.4,0.7,0.8,1.3,1.2,1.9c0.4,0.7,4.6,5.7,6.3,7c1.5,1,3.1,2,4.7,2.8
		c1.9,1,3.8,1.9,5.8,2.7c2.2,0.9,4.4,1.6,6.7,2.3c2.4,0.7,4.9,1.3,7.3,1.7c2.6,0.5,5.2,0.8,7.8,1c2.7,0.2,5.4,0.2,8,0
		c2.7-0.2,5.4-0.6,8.1-1.2c2.7-0.6,5.4-1.5,7.9-2.6c2.6-1.1,5.2-2.5,7.5-4.1c17-11.7,16.9-18.9,14.3-22.7
		C166.5,151.9,163.3,151.4,161,153z"/>
</g>
<g id="XMLID_40_">
	<path id="XMLID_55_" class="st0" d="M-260.5-2.5c0-57.5-46.7-104.2-104.2-104.2S-468.9-60-468.9-2.5c0,57.5,46.7,104.2,104.2,104.2
		S-260.5,54.9-260.5-2.5z M-331-70.1c17.1,0,30.9,13.8,30.9,30.9S-313.9-8.3-331-8.3c-17.1,0-30.9-13.8-30.9-30.9
		S-348.1-70.1-331-70.1z M-398.2-70.1c17.1,0,30.9,13.8,30.9,30.9s-13.8,30.9-30.9,30.9s-30.9-13.8-30.9-30.9
		S-415.3-70.1-398.2-70.1z M-429.3,27.8c-9.7,0-17.5-7.8-17.5-17.5s7.8-17.5,17.5-17.5c9.7,0,17.5,7.8,17.5,17.5
		S-419.6,27.8-429.3,27.8z M-334.7,57.1c-2.4,1.6-4.9,3-7.5,4.1c-2.5,1.1-5.2,1.9-7.9,2.6c-2.7,0.6-5.4,1-8.1,1.2
		c-2.7,0.2-5.4,0.2-8,0c-2.6-0.2-5.2-0.5-7.8-1c-2.5-0.5-4.9-1-7.3-1.7c-2.3-0.7-4.5-1.4-6.7-2.3c-2-0.8-3.9-1.7-5.8-2.7
		c-1.6-0.8-3.2-1.8-4.7-2.8c-1.8-1.2-5.9-6.3-6.3-7c-0.4-0.7-0.8-1.3-1.2-1.9c-0.6-1-1.2-2.1-1.7-3.1c-1.1-2.3-2.1-4.8-2.3-7.3
		c-0.1-1.8,0.2-3.7,1.6-4.9c1.7-1.5,4.3-1.5,6.2-0.1c8.1,6.3,40.4,27.7,74.9,3.2c2.3-1.6,5.4-1.1,7,1.2
		C-317.8,38.2-317.6,45.4-334.7,57.1z M-317.6,10.3c0-9.7,7.8-17.5,17.5-17.5c9.7,0,17.5,7.8,17.5,17.5s-7.8,17.5-17.5,17.5
		C-309.8,27.8-317.6,20-317.6,10.3z"/>
	<path id="XMLID_52_" d="M-364.7-127.5c-69,0-125,56-125,125c0,69,56,125,125,125s125-56,125-125
		C-239.7-71.6-295.6-127.5-364.7-127.5z M-468.9-2.5c0-57.5,46.7-104.2,104.2-104.2S-260.5-60-260.5-2.5
		c0,57.5-46.7,104.2-104.2,104.2S-468.9,54.9-468.9-2.5z"/>
	<path id="XMLID_51_" d="M-398.2-26.7c6.9,0,12.6-5.6,12.6-12.6c0-6.9-5.6-12.6-12.6-12.6c-6.9,0-12.6,5.6-12.6,12.6
		C-410.8-32.3-405.1-26.7-398.2-26.7z"/>
	<path id="XMLID_48_" class="st1" d="M-398.2-8.3c17.1,0,30.9-13.8,30.9-30.9s-13.8-30.9-30.9-30.9s-30.9,13.8-30.9,30.9
		S-415.3-8.3-398.2-8.3z M-398.2-51.8c6.9,0,12.6,5.6,12.6,12.6c0,6.9-5.6,12.6-12.6,12.6c-6.9,0-12.6-5.6-12.6-12.6
		C-410.8-46.2-405.1-51.8-398.2-51.8z"/>
	<path id="XMLID_47_" d="M-331-26.7c6.9,0,12.6-5.6,12.6-12.6c0-6.9-5.6-12.6-12.6-12.6c-6.9,0-12.6,5.6-12.6,12.6
		C-343.6-32.3-337.9-26.7-331-26.7z"/>
	<path id="XMLID_44_" class="st1" d="M-331-8.3c17.1,0,30.9-13.8,30.9-30.9s-13.8-30.9-30.9-30.9c-17.1,0-30.9,13.8-30.9,30.9
		S-348.1-8.3-331-8.3z M-331-51.8c6.9,0,12.6,5.6,12.6,12.6c0,6.9-5.6,12.6-12.6,12.6c-6.9,0-12.6-5.6-12.6-12.6
		C-343.6-46.2-337.9-51.8-331-51.8z"/>
	<path id="XMLID_43_" d="M-327.3,33.3c-34.5,24.6-66.8,3.1-74.9-3.2c-1.8-1.4-4.4-1.5-6.2,0.1c-1.4,1.3-1.8,3.1-1.6,4.9
		c0.2,2.6,1.2,5.1,2.3,7.3c0.5,1.1,1.1,2.1,1.7,3.1c0.4,0.7,0.8,1.3,1.2,1.9c0.4,0.7,4.6,5.7,6.3,7c1.5,1,3.1,2,4.7,2.8
		c1.9,1,3.8,1.9,5.8,2.7c2.2,0.9,4.4,1.6,6.7,2.3c2.4,0.7,4.9,1.3,7.3,1.7c2.6,0.5,5.2,0.8,7.8,1c2.7,0.2,5.4,0.2,8,0
		c2.7-0.2,5.4-0.6,8.1-1.2c2.7-0.6,5.4-1.5,7.9-2.6c2.6-1.1,5.2-2.5,7.5-4.1c17-11.7,16.9-18.9,14.3-22.7
		C-321.9,32.1-325.1,31.6-327.3,33.3z"/>
	<circle id="XMLID_42_" class="st2" cx="-300.1" cy="10.3" r="17.5"/>
	<circle id="XMLID_41_" class="st2" cx="-429.3" cy="10.3" r="17.5"/>
</g>
</svg>
